<svg width="235" height="43" viewBox="0 0 235 43" fill="none" xmlns="http://www.w3.org/2000/svg">
<g clip-path="url(#clip0_53_1407)">
<path d="M43.873 36.1014V29.7852H46.7835C47.3717 29.7852 47.8671 29.8471 48.2077 29.9709C48.5792 30.0948 48.8579 30.2805 49.0437 30.5592C49.2604 30.8379 49.3533 31.1165 49.3533 31.3952C49.3533 31.6738 49.2604 31.9215 49.0746 32.1692C48.8889 32.4169 48.6102 32.6027 48.2696 32.7575C48.734 32.8813 49.1056 33.0671 49.3533 33.3458C49.601 33.6244 49.7248 33.934 49.7248 34.3056C49.7248 34.6771 49.6629 34.8629 49.5081 35.1415C49.3533 35.3892 49.1675 35.606 48.9508 35.7298C48.7341 35.8846 48.4554 35.9775 48.1148 36.0394C47.7742 36.1014 47.3408 36.1323 46.8763 36.1323H43.904L43.873 36.1014ZM44.8948 32.4479H46.5667C47.0311 32.4479 47.3408 32.4479 47.5575 32.3859C47.8052 32.324 48.0219 32.2311 48.1458 32.0763C48.2696 31.9215 48.3315 31.7358 48.3315 31.519C48.3315 31.3023 48.2696 31.1165 48.1458 30.9617C48.0219 30.8069 47.8362 30.683 47.6194 30.6211C47.4027 30.5592 47.0002 30.5282 46.4429 30.5282H44.8948V32.4479ZM44.8948 35.3583H46.8144C47.155 35.3583 47.3717 35.3583 47.5265 35.3583C47.7742 35.3273 47.96 35.2654 48.1148 35.1725C48.2696 35.0796 48.3935 34.9867 48.5173 34.8319C48.6102 34.6771 48.6721 34.4914 48.6721 34.3056C48.6721 34.1198 48.6102 33.8721 48.4554 33.6863C48.3006 33.5006 48.1148 33.3767 47.8362 33.3148C47.5885 33.2529 47.186 33.2219 46.6906 33.2219H44.8948V35.3892V35.3583Z" fill="#00557C"/>
<path d="M43.873 36.1014V29.7852H46.7835C47.3717 29.7852 47.8671 29.8471 48.2077 29.9709C48.5792 30.0948 48.8579 30.2805 49.0437 30.5592C49.2604 30.8379 49.3533 31.1165 49.3533 31.3952C49.3533 31.6738 49.2604 31.9215 49.0746 32.1692C48.8889 32.4169 48.6102 32.6027 48.2696 32.7575C48.734 32.8813 49.1056 33.0671 49.3533 33.3458C49.601 33.6244 49.7248 33.934 49.7248 34.3056C49.7248 34.6771 49.6629 34.8629 49.5081 35.1415C49.3533 35.3892 49.1675 35.606 48.9508 35.7298C48.7341 35.8846 48.4554 35.9775 48.1148 36.0394C47.7742 36.1014 47.3408 36.1323 46.8763 36.1323H43.904L43.873 36.1014ZM44.8948 32.4479H46.5667C47.0311 32.4479 47.3408 32.4479 47.5575 32.3859C47.8052 32.324 48.0219 32.2311 48.1458 32.0763C48.2696 31.9215 48.3315 31.7358 48.3315 31.519C48.3315 31.3023 48.2696 31.1165 48.1458 30.9617C48.0219 30.8069 47.8362 30.683 47.6194 30.6211C47.4027 30.5592 47.0002 30.5282 46.4429 30.5282H44.8948V32.4479ZM44.8948 35.3583H46.8144C47.155 35.3583 47.3717 35.3583 47.5265 35.3583C47.7742 35.3273 47.96 35.2654 48.1148 35.1725C48.2696 35.0796 48.3935 34.9867 48.5173 34.8319C48.6102 34.6771 48.6721 34.4914 48.6721 34.3056C48.6721 34.1198 48.6102 33.8721 48.4554 33.6863C48.3006 33.5006 48.1148 33.3767 47.8362 33.3148C47.5885 33.2529 47.186 33.2219 46.6906 33.2219H44.8948V35.3892V35.3583Z" stroke="white" stroke-width="0.309618" stroke-linecap="round" stroke-linejoin="round"/>
<path d="M50.6226 36.1014V29.7852H56.2266V30.5282H51.6443V32.4788H55.948V33.191H51.6443V35.3583H56.4124V36.1014H50.6226Z" fill="#00557C"/>
<path d="M50.6226 36.1014V29.7852H56.2266V30.5282H51.6443V32.4788H55.948V33.191H51.6443V35.3583H56.4124V36.1014H50.6226Z" stroke="white" stroke-width="0.309618" stroke-linecap="round" stroke-linejoin="round"/>
<path d="M62.8215 33.8722L63.8432 34.0889C63.6265 34.7701 63.255 35.2964 62.6667 35.668C62.1094 36.0395 61.4282 36.1943 60.6232 36.1943C59.8182 36.1943 59.1061 36.0705 58.5797 35.7918C58.0534 35.5132 57.6509 35.1107 57.3722 34.5843C57.0936 34.0579 56.9697 33.5006 56.9697 32.8814C56.9697 32.2622 57.1245 31.6429 57.4342 31.1475C57.7438 30.6522 58.1772 30.2806 58.7655 30.0329C59.3228 29.7852 59.973 29.6614 60.6542 29.6614C61.3353 29.6614 62.0784 29.8162 62.6048 30.1258C63.1311 30.4354 63.5027 30.8998 63.7194 31.4881L62.6977 31.6739C62.5119 31.2095 62.2642 30.8689 61.9236 30.6831C61.583 30.4664 61.1496 30.3735 60.6232 30.3735C60.0969 30.3735 59.5396 30.4973 59.1371 30.7141C58.7345 30.9618 58.4559 31.2714 58.3011 31.6429C58.1463 32.0454 58.0534 32.4479 58.0534 32.8504C58.0534 33.2529 58.1463 33.8412 58.332 34.2437C58.5178 34.6462 58.8274 34.9558 59.2299 35.1416C59.6324 35.3274 60.0659 35.4512 60.5613 35.4512C61.0567 35.4512 61.614 35.3274 62.0165 35.0487C62.419 34.7701 62.6977 34.3676 62.8215 33.8412" fill="#00557C"/>
<path d="M62.8215 33.8722L63.8432 34.0889C63.6265 34.7701 63.255 35.2964 62.6667 35.668C62.1094 36.0395 61.4282 36.1943 60.6232 36.1943C59.8182 36.1943 59.1061 36.0705 58.5797 35.7918C58.0534 35.5132 57.6509 35.1107 57.3722 34.5843C57.0936 34.0579 56.9697 33.5006 56.9697 32.8814C56.9697 32.2622 57.1245 31.6429 57.4342 31.1475C57.7438 30.6522 58.1772 30.2806 58.7655 30.0329C59.3228 29.7852 59.973 29.6614 60.6542 29.6614C61.3353 29.6614 62.0784 29.8162 62.6048 30.1258C63.1311 30.4354 63.5027 30.8998 63.7194 31.4881L62.6977 31.6739C62.5119 31.2095 62.2642 30.8689 61.9236 30.6831C61.583 30.4664 61.1496 30.3735 60.6232 30.3735C60.0969 30.3735 59.5396 30.4973 59.1371 30.7141C58.7345 30.9618 58.4559 31.2714 58.3011 31.6429C58.1463 32.0454 58.0534 32.4479 58.0534 32.8504C58.0534 33.2529 58.1463 33.8412 58.332 34.2437C58.5178 34.6462 58.8274 34.9558 59.2299 35.1416C59.6324 35.3274 60.0659 35.4512 60.5613 35.4512C61.0567 35.4512 61.614 35.3274 62.0165 35.0487C62.419 34.7701 62.6977 34.3676 62.8215 33.8412V33.8722Z" stroke="white" stroke-width="0.309618" stroke-linecap="round" stroke-linejoin="round"/>
<path d="M63.7192 36.1014L66.6916 29.7852H67.8062L70.9953 36.1014H69.8187L68.9208 34.1817H65.6698L64.8339 36.1014H63.7502H63.7192ZM65.9794 33.5006H68.6112L67.8062 31.7667C67.5585 31.2404 67.3727 30.8069 67.2489 30.4663C67.156 30.8688 67.0012 31.2713 66.8464 31.6738L65.9794 33.5315V33.5006Z" fill="#00557C"/>
<path d="M63.7192 36.1014L66.6916 29.7852H67.8062L70.9953 36.1014H69.8187L68.9208 34.1817H65.6698L64.8339 36.1014H63.7502H63.7192ZM65.9794 33.5006H68.6112L67.8062 31.7667C67.5585 31.2404 67.3727 30.8069 67.2489 30.4663C67.156 30.8688 67.0012 31.2713 66.8464 31.6738L65.9794 33.5315V33.5006Z" stroke="white" stroke-width="0.309618" stroke-linecap="round" stroke-linejoin="round"/>
<path d="M76.3826 29.7854H77.4044V33.4388C77.4044 34.089 77.3115 34.5844 77.1257 34.956C76.9399 35.3275 76.6303 35.6371 76.1659 35.8539C75.7015 36.1016 75.1132 36.1944 74.3701 36.1944C73.627 36.1944 73.0387 36.1016 72.5743 35.8848C72.1099 35.6681 71.7693 35.3894 71.5835 34.9869C71.3978 34.5844 71.2739 34.0581 71.2739 33.4079V29.7544H72.2957V33.4079C72.2957 33.9652 72.3576 34.3677 72.4814 34.6154C72.6053 34.8631 72.822 35.0798 73.1316 35.2037C73.4413 35.3275 73.8128 35.4204 74.2463 35.4204C74.9893 35.4204 75.5467 35.2966 75.8563 35.0179C76.1659 34.7392 76.3517 34.2129 76.3517 33.4079V29.7544L76.3826 29.7854Z" fill="#00557C"/>
<path d="M76.3826 29.7854H77.4044V33.4388C77.4044 34.089 77.3115 34.5844 77.1257 34.956C76.9399 35.3275 76.6303 35.6371 76.1659 35.8539C75.7015 36.1016 75.1132 36.1944 74.3701 36.1944C73.627 36.1944 73.0387 36.1016 72.5743 35.8848C72.1099 35.6681 71.7693 35.3894 71.5835 34.9869C71.3978 34.5844 71.2739 34.0581 71.2739 33.4079V29.7544H72.2957V33.4079C72.2957 33.9652 72.3576 34.3677 72.4814 34.6154C72.6053 34.8631 72.822 35.0798 73.1316 35.2037C73.4413 35.3275 73.8128 35.4204 74.2463 35.4204C74.9893 35.4204 75.5467 35.2966 75.8563 35.0179C76.1659 34.7392 76.3517 34.2129 76.3517 33.4079V29.7544L76.3826 29.7854Z" stroke="white" stroke-width="0.309618" stroke-linecap="round" stroke-linejoin="round"/>
<path d="M78.2096 34.0579L79.1694 33.996C79.2004 34.3056 79.3242 34.5843 79.479 34.77C79.6338 34.9868 79.9125 35.1416 80.2531 35.2654C80.5936 35.3893 80.9961 35.4512 81.4296 35.4512C81.8631 35.4512 82.1727 35.3893 82.4823 35.2964C82.7919 35.2035 83.0087 35.0796 83.1635 34.8939C83.3183 34.7391 83.3802 34.5533 83.3802 34.3366C83.3802 34.1198 83.3183 33.965 83.1635 33.8102C83.0087 33.6554 82.7919 33.5316 82.4513 33.4387C82.2346 33.3767 81.7702 33.2839 81.0581 33.1291C80.3459 32.9742 79.8506 32.8504 79.5719 32.7266C79.2004 32.5717 78.9217 32.386 78.7359 32.1383C78.5502 31.8906 78.4573 31.6429 78.4573 31.3642C78.4573 31.0856 78.5811 30.745 78.7979 30.4663C79.0146 30.1877 79.3552 29.971 79.7577 29.8471C80.1911 29.6923 80.6556 29.6304 81.1819 29.6304C81.7083 29.6304 82.2656 29.7233 82.699 29.8471C83.1325 30.0019 83.4731 30.2186 83.7208 30.4973C83.9685 30.776 84.0923 31.1165 84.0923 31.4881L83.1015 31.55C83.0396 31.1475 82.8539 30.8379 82.5752 30.6521C82.2656 30.4354 81.8321 30.3425 81.2129 30.3425C80.5936 30.3425 80.1292 30.4354 79.8506 30.6211C79.5719 30.8069 79.4171 31.0237 79.4171 31.3023C79.4171 31.581 79.51 31.7048 79.7267 31.8596C79.9125 32.0144 80.4388 32.1383 81.2748 32.324C82.1108 32.4789 82.6681 32.6027 82.9777 32.7266C83.4421 32.8814 83.7517 33.0981 83.9685 33.3767C84.1852 33.6244 84.2781 33.9341 84.2781 34.2746C84.2781 34.6152 84.1542 34.9248 83.9375 35.2345C83.6898 35.5441 83.3492 35.7608 82.9158 35.9156C82.4823 36.0704 81.9869 36.1633 81.4296 36.1633C80.8723 36.1633 80.1292 36.0704 79.6648 35.9156C79.2004 35.7608 78.8288 35.5131 78.5502 35.1725C78.2715 34.832 78.1477 34.4604 78.1167 34.0269" fill="#00557C"/>
<path d="M78.2096 34.0579L79.1694 33.996C79.2004 34.3056 79.3242 34.5843 79.479 34.77C79.6338 34.9868 79.9125 35.1416 80.2531 35.2654C80.5936 35.3893 80.9961 35.4512 81.4296 35.4512C81.8631 35.4512 82.1727 35.3893 82.4823 35.2964C82.7919 35.2035 83.0087 35.0796 83.1635 34.8939C83.3183 34.7391 83.3802 34.5533 83.3802 34.3366C83.3802 34.1198 83.3183 33.965 83.1635 33.8102C83.0087 33.6554 82.7919 33.5316 82.4513 33.4387C82.2346 33.3767 81.7702 33.2839 81.0581 33.1291C80.3459 32.9742 79.8506 32.8504 79.5719 32.7266C79.2004 32.5717 78.9217 32.386 78.7359 32.1383C78.5502 31.8906 78.4573 31.6429 78.4573 31.3642C78.4573 31.0856 78.5811 30.745 78.7979 30.4663C79.0146 30.1877 79.3552 29.971 79.7577 29.8471C80.1911 29.6923 80.6556 29.6304 81.1819 29.6304C81.7083 29.6304 82.2656 29.7233 82.699 29.8471C83.1325 30.0019 83.4731 30.2186 83.7208 30.4973C83.9685 30.776 84.0923 31.1165 84.0923 31.4881L83.1015 31.55C83.0396 31.1475 82.8539 30.8379 82.5752 30.6521C82.2656 30.4354 81.8321 30.3425 81.2129 30.3425C80.5936 30.3425 80.1292 30.4354 79.8506 30.6211C79.5719 30.8069 79.4171 31.0237 79.4171 31.3023C79.4171 31.581 79.51 31.7048 79.7267 31.8596C79.9125 32.0144 80.4388 32.1383 81.2748 32.324C82.1108 32.4789 82.6681 32.6027 82.9777 32.7266C83.4421 32.8814 83.7517 33.0981 83.9685 33.3767C84.1852 33.6244 84.2781 33.9341 84.2781 34.2746C84.2781 34.6152 84.1542 34.9248 83.9375 35.2345C83.6898 35.5441 83.3492 35.7608 82.9158 35.9156C82.4823 36.0704 81.9869 36.1633 81.4296 36.1633C80.8723 36.1633 80.1292 36.0704 79.6648 35.9156C79.2004 35.7608 78.8288 35.5131 78.5502 35.1725C78.2715 34.832 78.1477 34.4604 78.1167 34.0269L78.2096 34.0579Z" stroke="white" stroke-width="0.309618" stroke-linecap="round" stroke-linejoin="round"/>
<path d="M85.2686 36.1014V29.7852H90.8726V30.5282H86.2903V32.4788H90.594V33.191H86.2903V35.3583H91.0584V36.1014H85.2686Z" fill="#00557C"/>
<path d="M85.2686 36.1014V29.7852H90.8726V30.5282H86.2903V32.4788H90.594V33.191H86.2903V35.3583H91.0584V36.1014H85.2686Z" stroke="white" stroke-width="0.309618" stroke-linecap="round" stroke-linejoin="round"/>
<path d="M94.4336 36.1014V29.7852H95.4863V32.3859H99.5113V29.7852H100.533V36.1014H99.5113V33.129H95.4863V36.1014H94.4336Z" fill="#00557C"/>
<path d="M94.4336 36.1014V29.7852H95.4863V32.3859H99.5113V29.7852H100.533V36.1014H99.5113V33.129H95.4863V36.1014H94.4336Z" stroke="white" stroke-width="0.309618" stroke-linecap="round" stroke-linejoin="round"/>
<path d="M101.74 36.1014V29.7852H107.344V30.5282H102.762V32.4788H107.035V33.191H102.762V35.3583H107.53V36.1014H101.74Z" fill="#00557C"/>
<path d="M101.74 36.1014V29.7852H107.344V30.5282H102.762V32.4788H107.035V33.191H102.762V35.3583H107.53V36.1014H101.74Z" stroke="white" stroke-width="0.309618" stroke-linecap="round" stroke-linejoin="round"/>
<path d="M107.53 36.1014L110.503 29.7852H111.617L114.806 36.1014H113.63L112.732 34.1817H109.481L108.645 36.1014H107.561H107.53ZM109.79 33.5006H112.422L111.617 31.7667C111.37 31.2404 111.184 30.8069 111.06 30.4663C110.967 30.8688 110.812 31.2713 110.626 31.6738L109.76 33.5315L109.79 33.5006Z" fill="#00557C"/>
<path d="M107.53 36.1014L110.503 29.7852H111.617L114.806 36.1014H113.63L112.732 34.1817H109.481L108.645 36.1014H107.561H107.53ZM109.79 33.5006H112.422L111.617 31.7667C111.37 31.2404 111.184 30.8069 111.06 30.4663C110.967 30.8688 110.812 31.2713 110.626 31.6738L109.76 33.5315L109.79 33.5006Z" stroke="white" stroke-width="0.309618" stroke-linecap="round" stroke-linejoin="round"/>
<path d="M115.054 36.1014V29.7852H116.076V35.3583H119.884V36.1014H115.054Z" fill="#00557C"/>
<path d="M115.054 36.1014V29.7852H116.076V35.3583H119.884V36.1014H115.054Z" stroke="white" stroke-width="0.309618" stroke-linecap="round" stroke-linejoin="round"/>
<path d="M121.742 36.1014V30.5282H119.172V29.7852H125.333V30.5282H122.763V36.1014H121.742Z" fill="#00557C"/>
<path d="M121.742 36.1014V30.5282H119.172V29.7852H125.333V30.5282H122.763V36.1014H121.742Z" stroke="white" stroke-width="0.309618" stroke-linecap="round" stroke-linejoin="round"/>
<path d="M125.891 36.1014V29.7852H126.912V32.3859H130.937V29.7852H131.959V36.1014H130.937V33.129H126.912V36.1014H125.891Z" fill="#00557C"/>
<path d="M125.891 36.1014V29.7852H126.912V32.3859H130.937V29.7852H131.959V36.1014H130.937V33.129H126.912V36.1014H125.891Z" stroke="white" stroke-width="0.309618" stroke-linecap="round" stroke-linejoin="round"/>
<path d="M135.613 36.1014V29.7852H138.276C138.895 29.7852 139.328 29.8161 139.669 29.878C140.102 29.9709 140.505 30.1257 140.814 30.3425C141.217 30.6211 141.526 30.9927 141.743 31.4261C141.96 31.8596 142.053 32.355 142.053 32.9123C142.053 33.4696 141.991 33.8102 141.836 34.1817C141.712 34.5533 141.526 34.8629 141.31 35.1106C141.093 35.3583 140.845 35.544 140.598 35.6679C140.35 35.8227 140.04 35.9156 139.669 35.9775C139.297 36.0394 138.895 36.0704 138.43 36.0704H135.644L135.613 36.1014ZM136.635 35.3583H138.306C138.802 35.3583 139.204 35.3273 139.514 35.2344C139.793 35.1725 140.04 35.0487 140.195 34.8939C140.443 34.7081 140.629 34.4294 140.752 34.0888C140.876 33.7483 140.969 33.3458 140.969 32.8813C140.969 32.4169 140.845 31.7048 140.567 31.3642C140.288 30.9927 139.978 30.7759 139.607 30.6521C139.328 30.5592 138.895 30.5282 138.276 30.5282H136.635V35.3583Z" fill="#00557C"/>
<path d="M135.613 36.1014V29.7852H138.276C138.895 29.7852 139.328 29.8161 139.669 29.878C140.102 29.9709 140.505 30.1257 140.814 30.3425C141.217 30.6211 141.526 30.9927 141.743 31.4261C141.96 31.8596 142.053 32.355 142.053 32.9123C142.053 33.4696 141.991 33.8102 141.836 34.1817C141.712 34.5533 141.526 34.8629 141.31 35.1106C141.093 35.3583 140.845 35.544 140.598 35.6679C140.35 35.8227 140.04 35.9156 139.669 35.9775C139.297 36.0394 138.895 36.0704 138.43 36.0704H135.644L135.613 36.1014ZM136.635 35.3583H138.306C138.802 35.3583 139.204 35.3273 139.514 35.2344C139.793 35.1725 140.04 35.0487 140.195 34.8939C140.443 34.7081 140.629 34.4294 140.752 34.0888C140.876 33.7483 140.969 33.3458 140.969 32.8813C140.969 32.4169 140.845 31.7048 140.567 31.3642C140.288 30.9927 139.978 30.7759 139.607 30.6521C139.328 30.5592 138.895 30.5282 138.276 30.5282H136.635V35.3583Z" stroke="white" stroke-width="0.309618" stroke-linecap="round" stroke-linejoin="round"/>
<path d="M142.919 36.1014V29.7852H148.524V30.5282H143.941V32.4788H148.245V33.191H143.941V35.3583H148.709V36.1014H142.919Z" fill="#00557C"/>
<path d="M142.919 36.1014V29.7852H148.524V30.5282H143.941V32.4788H148.245V33.191H143.941V35.3583H148.709V36.1014H142.919Z" stroke="white" stroke-width="0.309618" stroke-linecap="round" stroke-linejoin="round"/>
<path d="M149.236 34.0579L150.196 33.996C150.227 34.3056 150.351 34.5843 150.505 34.77C150.66 34.9868 150.939 35.1416 151.279 35.2654C151.62 35.3893 152.023 35.4512 152.456 35.4512C152.889 35.4512 153.199 35.3893 153.509 35.2964C153.818 35.2035 154.035 35.0796 154.19 34.8939C154.345 34.7391 154.407 34.5533 154.407 34.3366C154.407 34.1198 154.345 33.965 154.19 33.8102C154.035 33.6554 153.818 33.5316 153.478 33.4387C153.261 33.3767 152.797 33.2839 152.084 33.1291C151.372 32.9742 150.877 32.8504 150.598 32.7266C150.227 32.5717 149.948 32.386 149.762 32.1383C149.577 31.8906 149.484 31.6429 149.484 31.3642C149.484 31.0856 149.607 30.745 149.824 30.4663C150.041 30.1877 150.382 29.971 150.784 29.8471C151.218 29.6923 151.682 29.6304 152.208 29.6304C152.735 29.6304 153.292 29.7233 153.725 29.8471C154.159 30.0019 154.499 30.2186 154.747 30.4973C154.995 30.776 155.119 31.1165 155.119 31.4881L154.128 31.55C154.066 31.1475 153.88 30.8379 153.602 30.6521C153.292 30.4354 152.858 30.3425 152.239 30.3425C151.62 30.3425 151.156 30.4354 150.877 30.6211C150.598 30.8069 150.443 31.0237 150.443 31.3023C150.443 31.581 150.536 31.7048 150.753 31.8596C150.939 32.0144 151.465 32.1383 152.301 32.324C153.137 32.4789 153.694 32.6027 154.004 32.7266C154.468 32.8814 154.778 33.0981 154.995 33.3767C155.212 33.6244 155.304 33.9341 155.304 34.2746C155.304 34.6152 155.181 34.9248 154.964 35.2345C154.716 35.5441 154.376 35.7608 153.942 35.9156C153.509 36.0704 153.013 36.1633 152.456 36.1633C151.899 36.1633 151.156 36.0704 150.691 35.9156C150.227 35.7608 149.855 35.5131 149.577 35.1725C149.298 34.832 149.174 34.4604 149.143 34.0269" fill="#00557C"/>
<path d="M149.236 34.0579L150.196 33.996C150.227 34.3056 150.351 34.5843 150.505 34.77C150.66 34.9868 150.939 35.1416 151.279 35.2654C151.62 35.3893 152.023 35.4512 152.456 35.4512C152.889 35.4512 153.199 35.3893 153.509 35.2964C153.818 35.2035 154.035 35.0796 154.19 34.8939C154.345 34.7391 154.407 34.5533 154.407 34.3366C154.407 34.1198 154.345 33.965 154.19 33.8102C154.035 33.6554 153.818 33.5316 153.478 33.4387C153.261 33.3767 152.797 33.2839 152.084 33.1291C151.372 32.9742 150.877 32.8504 150.598 32.7266C150.227 32.5717 149.948 32.386 149.762 32.1383C149.577 31.8906 149.484 31.6429 149.484 31.3642C149.484 31.0856 149.607 30.745 149.824 30.4663C150.041 30.1877 150.382 29.971 150.784 29.8471C151.218 29.6923 151.682 29.6304 152.208 29.6304C152.735 29.6304 153.292 29.7233 153.725 29.8471C154.159 30.0019 154.499 30.2186 154.747 30.4973C154.995 30.776 155.119 31.1165 155.119 31.4881L154.128 31.55C154.066 31.1475 153.88 30.8379 153.602 30.6521C153.292 30.4354 152.858 30.3425 152.239 30.3425C151.62 30.3425 151.156 30.4354 150.877 30.6211C150.598 30.8069 150.443 31.0237 150.443 31.3023C150.443 31.581 150.536 31.7048 150.753 31.8596C150.939 32.0144 151.465 32.1383 152.301 32.324C153.137 32.4789 153.694 32.6027 154.004 32.7266C154.468 32.8814 154.778 33.0981 154.995 33.3767C155.212 33.6244 155.304 33.9341 155.304 34.2746C155.304 34.6152 155.181 34.9248 154.964 35.2345C154.716 35.5441 154.376 35.7608 153.942 35.9156C153.509 36.0704 153.013 36.1633 152.456 36.1633C151.899 36.1633 151.156 36.0704 150.691 35.9156C150.227 35.7608 149.855 35.5131 149.577 35.1725C149.298 34.832 149.174 34.4604 149.143 34.0269L149.236 34.0579Z" stroke="white" stroke-width="0.309618" stroke-linecap="round" stroke-linejoin="round"/>
<path d="M156.295 36.1014V29.7852H161.93V30.5282H157.317V32.4788H161.62V33.191H157.317V35.3583H162.085V36.1014H156.295Z" fill="#00557C"/>
<path d="M156.295 36.1014V29.7852H161.93V30.5282H157.317V32.4788H161.62V33.191H157.317V35.3583H162.085V36.1014H156.295Z" stroke="white" stroke-width="0.309618" stroke-linecap="round" stroke-linejoin="round"/>
<path d="M162.983 36.1014V29.7852H166.42C167.101 29.7852 167.627 29.8471 167.999 29.9709C168.37 30.0948 168.649 30.2805 168.866 30.5592C169.082 30.8379 169.175 31.1784 169.175 31.519C169.175 31.8596 168.989 32.355 168.649 32.6646C168.308 32.9742 167.751 33.16 167.008 33.2529C167.287 33.3458 167.503 33.4696 167.627 33.5625C167.937 33.7792 168.215 34.0579 168.494 34.3985L169.856 36.1323H168.556L167.534 34.801C167.225 34.4294 166.977 34.1198 166.791 33.934C166.605 33.7173 166.42 33.5935 166.265 33.5006C166.11 33.4077 165.955 33.3767 165.8 33.3458C165.677 33.3458 165.491 33.3458 165.243 33.3458H164.067V36.1633H163.045L162.983 36.1014ZM164.005 32.5717H166.203C166.667 32.5717 167.039 32.5408 167.318 32.4479C167.596 32.3859 167.782 32.2311 167.906 32.0763C168.03 31.8906 168.123 31.7048 168.123 31.519C168.123 31.2094 167.999 30.9617 167.72 30.7759C167.441 30.5902 167.039 30.4973 166.451 30.4973H164.005V32.5717Z" fill="#00557C"/>
<path d="M162.983 36.1014V29.7852H166.42C167.101 29.7852 167.627 29.8471 167.999 29.9709C168.37 30.0948 168.649 30.2805 168.866 30.5592C169.082 30.8379 169.175 31.1784 169.175 31.519C169.175 31.8596 168.989 32.355 168.649 32.6646C168.308 32.9742 167.751 33.16 167.008 33.2529C167.287 33.3458 167.503 33.4696 167.627 33.5625C167.937 33.7792 168.215 34.0579 168.494 34.3985L169.856 36.1323H168.556L167.534 34.801C167.225 34.4294 166.977 34.1198 166.791 33.934C166.605 33.7173 166.42 33.5935 166.265 33.5006C166.11 33.4077 165.955 33.3767 165.8 33.3458C165.677 33.3458 165.491 33.3458 165.243 33.3458H164.067V36.1633H163.045L162.983 36.1014ZM164.005 32.5717H166.203C166.667 32.5717 167.039 32.5408 167.318 32.4479C167.596 32.3859 167.782 32.2311 167.906 32.0763C168.03 31.8906 168.123 31.7048 168.123 31.519C168.123 31.2094 167.999 30.9617 167.72 30.7759C167.441 30.5902 167.039 30.4973 166.451 30.4973H164.005V32.5717Z" stroke="white" stroke-width="0.309618" stroke-linecap="round" stroke-linejoin="round"/>
<path d="M172.271 36.1014L169.268 29.7852H170.383L172.395 34.3675C172.55 34.739 172.705 35.0796 172.798 35.3892C172.922 35.0487 173.045 34.7081 173.231 34.3675L175.337 29.7852H176.389L173.355 36.1014H172.302H172.271Z" fill="#00557C"/>
<path d="M172.271 36.1014L169.268 29.7852H170.383L172.395 34.3675C172.55 34.739 172.705 35.0796 172.798 35.3892C172.922 35.0487 173.045 34.7081 173.231 34.3675L175.337 29.7852H176.389L173.355 36.1014H172.302H172.271Z" stroke="white" stroke-width="0.309618" stroke-linecap="round" stroke-linejoin="round"/>
<path d="M176.792 36.1014V29.7852H182.396V30.5282H177.814V32.4788H182.086V33.191H177.814V35.3583H182.582V36.1014H176.792Z" fill="#00557C"/>
<path d="M176.792 36.1014V29.7852H182.396V30.5282H177.814V32.4788H182.086V33.191H177.814V35.3583H182.582V36.1014H176.792Z" stroke="white" stroke-width="0.309618" stroke-linecap="round" stroke-linejoin="round"/>
<path d="M183.108 34.0579L184.068 33.996C184.099 34.3056 184.222 34.5843 184.377 34.77C184.532 34.9868 184.811 35.1416 185.151 35.2654C185.492 35.3893 185.894 35.4512 186.328 35.4512C186.761 35.4512 187.071 35.3893 187.381 35.2964C187.69 35.2035 187.907 35.0796 188.062 34.8939C188.217 34.7391 188.278 34.5533 188.278 34.3366C188.278 34.1198 188.217 33.965 188.062 33.8102C187.907 33.6554 187.69 33.5316 187.35 33.4387C187.133 33.3767 186.668 33.2839 185.956 33.1291C185.244 32.9742 184.749 32.8504 184.47 32.7266C184.099 32.5717 183.82 32.386 183.634 32.1383C183.448 31.8906 183.356 31.6429 183.356 31.3642C183.356 31.0856 183.479 30.745 183.696 30.4663C183.913 30.1877 184.253 29.971 184.656 29.8471C185.089 29.6923 185.554 29.6304 186.08 29.6304C186.607 29.6304 187.164 29.7233 187.597 29.8471C188.031 30.0019 188.371 30.2186 188.619 30.4973C188.867 30.776 188.991 31.1165 188.991 31.4881L188 31.55C187.938 31.1475 187.752 30.8379 187.473 30.6521C187.164 30.4354 186.73 30.3425 186.111 30.3425C185.492 30.3425 185.027 30.4354 184.749 30.6211C184.47 30.8069 184.315 31.0237 184.315 31.3023C184.315 31.581 184.408 31.7048 184.625 31.8596C184.811 32.0144 185.337 32.1383 186.173 32.324C187.009 32.4789 187.566 32.6027 187.907 32.7266C188.371 32.8814 188.681 33.0981 188.898 33.3767C189.114 33.6244 189.207 33.9341 189.207 34.2746C189.207 34.6152 189.083 34.9248 188.867 35.2345C188.619 35.5441 188.278 35.7608 187.845 35.9156C187.412 36.0704 186.916 36.1633 186.359 36.1633C185.802 36.1633 185.058 36.0704 184.594 35.9156C184.13 35.7608 183.758 35.5131 183.479 35.1725C183.201 34.832 183.077 34.4604 183.046 34.0269" fill="#00557C"/>
<path d="M183.108 34.0579L184.068 33.996C184.099 34.3056 184.222 34.5843 184.377 34.77C184.532 34.9868 184.811 35.1416 185.151 35.2654C185.492 35.3893 185.894 35.4512 186.328 35.4512C186.761 35.4512 187.071 35.3893 187.381 35.2964C187.69 35.2035 187.907 35.0796 188.062 34.8939C188.217 34.7391 188.278 34.5533 188.278 34.3366C188.278 34.1198 188.217 33.965 188.062 33.8102C187.907 33.6554 187.69 33.5316 187.35 33.4387C187.133 33.3767 186.668 33.2839 185.956 33.1291C185.244 32.9742 184.749 32.8504 184.47 32.7266C184.099 32.5717 183.82 32.386 183.634 32.1383C183.448 31.8906 183.356 31.6429 183.356 31.3642C183.356 31.0856 183.479 30.745 183.696 30.4663C183.913 30.1877 184.253 29.971 184.656 29.8471C185.089 29.6923 185.554 29.6304 186.08 29.6304C186.607 29.6304 187.164 29.7233 187.597 29.8471C188.031 30.0019 188.371 30.2186 188.619 30.4973C188.867 30.776 188.991 31.1165 188.991 31.4881L188 31.55C187.938 31.1475 187.752 30.8379 187.473 30.6521C187.164 30.4354 186.73 30.3425 186.111 30.3425C185.492 30.3425 185.027 30.4354 184.749 30.6211C184.47 30.8069 184.315 31.0237 184.315 31.3023C184.315 31.581 184.408 31.7048 184.625 31.8596C184.811 32.0144 185.337 32.1383 186.173 32.324C187.009 32.4789 187.566 32.6027 187.907 32.7266C188.371 32.8814 188.681 33.0981 188.898 33.3767C189.114 33.6244 189.207 33.9341 189.207 34.2746C189.207 34.6152 189.083 34.9248 188.867 35.2345C188.619 35.5441 188.278 35.7608 187.845 35.9156C187.412 36.0704 186.916 36.1633 186.359 36.1633C185.802 36.1633 185.058 36.0704 184.594 35.9156C184.13 35.7608 183.758 35.5131 183.479 35.1725C183.201 34.832 183.077 34.4604 183.046 34.0269L183.108 34.0579Z" stroke="white" stroke-width="0.309618" stroke-linecap="round" stroke-linejoin="round"/>
<path d="M198.496 35.4203C198.961 35.6989 199.425 35.8847 199.828 36.0085L199.518 36.5968C198.961 36.442 198.403 36.1634 197.846 35.8228C197.258 36.0705 196.638 36.2253 195.926 36.2253C195.214 36.2253 194.595 36.1014 194.007 35.8228C193.449 35.5441 192.985 35.1726 192.675 34.6462C192.366 34.1508 192.211 33.5935 192.211 32.9433C192.211 32.2931 192.366 31.7668 192.675 31.2404C192.985 30.7141 193.418 30.3425 194.007 30.0639C194.595 29.7852 195.214 29.6614 195.926 29.6614C196.638 29.6614 197.289 29.8162 197.877 30.0639C198.465 30.3425 198.899 30.7141 199.208 31.2404C199.518 31.7358 199.673 32.2931 199.673 32.9433C199.673 33.5935 199.58 33.9341 199.394 34.3366C199.208 34.7391 198.899 35.1107 198.527 35.4203M196.236 34.3676C196.824 34.4914 197.32 34.7081 197.691 34.9558C198.279 34.4914 198.589 33.8412 198.589 32.9433C198.589 32.0454 198.496 31.9835 198.279 31.612C198.063 31.2404 197.753 30.9308 197.351 30.7141C196.948 30.4973 196.484 30.4045 195.957 30.4045C195.183 30.4045 194.564 30.6212 194.038 31.0547C193.542 31.4881 193.295 32.1074 193.295 32.9743C193.295 33.8412 193.542 34.4295 194.038 34.863C194.533 35.2964 195.183 35.5132 195.957 35.5132C196.731 35.5132 196.669 35.4512 196.979 35.3583C196.669 35.2035 196.329 35.0797 195.957 34.9868L196.205 34.3676H196.236Z" fill="#00557C"/>
<path d="M198.496 35.4203C198.961 35.6989 199.425 35.8847 199.828 36.0085L199.518 36.5968C198.961 36.442 198.403 36.1634 197.846 35.8228C197.258 36.0705 196.638 36.2253 195.926 36.2253C195.214 36.2253 194.595 36.1014 194.007 35.8228C193.449 35.5441 192.985 35.1726 192.675 34.6462C192.366 34.1508 192.211 33.5935 192.211 32.9433C192.211 32.2931 192.366 31.7668 192.675 31.2404C192.985 30.7141 193.418 30.3425 194.007 30.0639C194.595 29.7852 195.214 29.6614 195.926 29.6614C196.638 29.6614 197.289 29.8162 197.877 30.0639C198.465 30.3425 198.899 30.7141 199.208 31.2404C199.518 31.7358 199.673 32.2931 199.673 32.9433C199.673 33.5935 199.58 33.9341 199.394 34.3366C199.208 34.7391 198.899 35.1107 198.527 35.4203H198.496ZM196.236 34.3676C196.824 34.4914 197.32 34.7081 197.691 34.9558C198.279 34.4914 198.589 33.8412 198.589 32.9433C198.589 32.0454 198.496 31.9835 198.279 31.612C198.063 31.2404 197.753 30.9308 197.351 30.7141C196.948 30.4973 196.484 30.4045 195.957 30.4045C195.183 30.4045 194.564 30.6212 194.038 31.0547C193.542 31.4881 193.295 32.1074 193.295 32.9743C193.295 33.8412 193.542 34.4295 194.038 34.863C194.533 35.2964 195.183 35.5132 195.957 35.5132C196.731 35.5132 196.669 35.4512 196.979 35.3583C196.669 35.2035 196.329 35.0797 195.957 34.9868L196.205 34.3676H196.236Z" stroke="white" stroke-width="0.309618" stroke-linecap="round" stroke-linejoin="round"/>
<path d="M205.586 29.7854H206.608V33.4388C206.608 34.089 206.515 34.5844 206.33 34.956C206.144 35.3275 205.834 35.6371 205.37 35.8539C204.905 36.1016 204.317 36.1944 203.543 36.1944C202.769 36.1944 202.212 36.1016 201.747 35.8848C201.283 35.6681 200.942 35.3894 200.756 34.9869C200.571 34.5844 200.447 34.0581 200.447 33.4079V29.7544H201.469V33.4079C201.469 33.9652 201.53 34.3677 201.654 34.6154C201.778 34.8631 201.995 35.0798 202.304 35.2037C202.614 35.3275 202.986 35.4204 203.419 35.4204C204.162 35.4204 204.72 35.2966 205.029 35.0179C205.339 34.7392 205.524 34.2129 205.524 33.4079V29.7544L205.586 29.7854Z" fill="#00557C"/>
<path d="M205.586 29.7854H206.608V33.4388C206.608 34.089 206.515 34.5844 206.33 34.956C206.144 35.3275 205.834 35.6371 205.37 35.8539C204.905 36.1016 204.317 36.1944 203.543 36.1944C202.769 36.1944 202.212 36.1016 201.747 35.8848C201.283 35.6681 200.942 35.3894 200.756 34.9869C200.571 34.5844 200.447 34.0581 200.447 33.4079V29.7544H201.469V33.4079C201.469 33.9652 201.53 34.3677 201.654 34.6154C201.778 34.8631 201.995 35.0798 202.304 35.2037C202.614 35.3275 202.986 35.4204 203.419 35.4204C204.162 35.4204 204.72 35.2966 205.029 35.0179C205.339 34.7392 205.524 34.2129 205.524 33.4079V29.7544L205.586 29.7854Z" stroke="white" stroke-width="0.309618" stroke-linecap="round" stroke-linejoin="round"/>
<path d="M206.949 36.1014L209.921 29.7852H211.036L214.225 36.1014H213.048L212.15 34.1817H208.899L208.063 36.1014H206.98H206.949ZM209.178 33.5006H211.81L211.005 31.7667C210.757 31.2404 210.571 30.8069 210.447 30.4663C210.355 30.8688 210.2 31.2713 210.045 31.6738L209.178 33.5315V33.5006Z" fill="#00557C"/>
<path d="M206.949 36.1014L209.921 29.7852H211.036L214.225 36.1014H213.048L212.15 34.1817H208.899L208.063 36.1014H206.98H206.949ZM209.178 33.5006H211.81L211.005 31.7667C210.757 31.2404 210.571 30.8069 210.447 30.4663C210.355 30.8688 210.2 31.2713 210.045 31.6738L209.178 33.5315V33.5006Z" stroke="white" stroke-width="0.309618" stroke-linecap="round" stroke-linejoin="round"/>
<path d="M214.441 36.1014V29.7852H215.463V35.3583H219.302V36.1014H214.441Z" fill="#00557C"/>
<path d="M214.441 36.1014V29.7852H215.463V35.3583H219.302V36.1014H214.441Z" stroke="white" stroke-width="0.309618" stroke-linecap="round" stroke-linejoin="round"/>
<path d="M221.16 29.7852H220.138V36.1014H221.16V29.7852Z" fill="#00557C"/>
<path d="M221.16 29.7852H220.138V36.1014H221.16V29.7852Z" stroke="white" stroke-width="0.309618" stroke-linecap="round" stroke-linejoin="round"/>
<path d="M224.411 36.1014V30.5282H221.841V29.7852H228.003V30.5282H225.433V36.1014H224.411Z" fill="#00557C"/>
<path d="M224.411 36.1014V30.5282H221.841V29.7852H228.003V30.5282H225.433V36.1014H224.411Z" stroke="white" stroke-width="0.309618" stroke-linecap="round" stroke-linejoin="round"/>
<path d="M230.696 36.1014V33.4386L227.693 29.7852H228.931L230.448 31.6738C230.727 32.0454 231.006 32.3859 231.253 32.7575C231.501 32.4169 231.78 32.0454 232.089 31.6429L233.607 29.7852H234.814L231.718 33.4386V36.1014H230.696Z" fill="#00557C"/>
<path d="M230.696 36.1014V33.4386L227.693 29.7852H228.931L230.448 31.6738C230.727 32.0454 231.006 32.3859 231.253 32.7575C231.501 32.4169 231.78 32.0454 232.089 31.6429L233.607 29.7852H234.814L231.718 33.4386V36.1014H230.696Z" stroke="white" stroke-width="0.309618" stroke-linecap="round" stroke-linejoin="round"/>
<path d="M211.097 9.66011L210.076 8.29779L208.404 6.93548L206.484 6.00662L204.812 5.48027L202.893 5.17065H200.725L199.704 5.26354L198.186 5.57316L196.514 6.19239L194.843 7.12125L193.821 7.95722L192.675 9.31953L191.901 10.7747L191.406 12.8492V14.2115L191.901 16.0692L192.551 17.3077L193.697 18.7629L194.719 19.5988L196.112 20.4348L198.155 21.2708L200.323 21.6733H203.14L204.936 21.3637L206.608 20.8373L208.404 19.9085L209.797 18.7629L210.819 17.6173L211.593 16.1621L212.119 14.3973V12.4157L211.748 10.9605L211.097 9.59819V9.66011ZM207.258 14.0257L206.887 15.1713L206.236 16.224L205.091 17.2767L204.069 17.8031L202.8 18.1127H200.632L199.239 17.7102L198.094 16.9671L197.319 16.255L196.669 15.2023L196.422 14.3663V12.5086L196.948 11.363L197.722 10.4342L198.372 9.90781L199.394 9.28857L200.416 8.97895L201.19 8.88607H202.459L203.605 9.1028L204.874 9.62915L206.02 10.4651L206.794 11.5178L207.289 12.973V14.1186L207.258 14.0257Z" fill="#00557C"/>
<path d="M142.3 5.604L140.504 7.80229L139.607 8.82403L135.891 13.4064L135.643 13.9327H135.272V13.716L134.374 12.5704L133.352 11.4248L129.637 6.87344L128.491 5.604H124.931V21.3016L125.055 21.3945H129.637L129.761 21.3016V13.716H129.916L130.659 14.6448L132.083 16.4097L133.105 17.6791L134.002 18.8247L134.869 18.9176H136.665L137.315 18.2983L139.73 15.2641L140.628 14.1495L141 13.716L141.124 21.3945H145.861L145.985 21.3016V5.72785L145.861 5.604H142.3Z" fill="#00557C"/>
<path d="M121.216 19.3203L119.699 17.6483L118.553 16.5028L118.305 15.9764L119.451 15.3572L120.596 14.3045L121.37 13.1589L121.742 11.9204V10.2485L121.494 9.31962L120.999 8.39077L120.225 7.5548L119.575 7.02845L118.429 6.40921L116.912 5.88286L114.992 5.57324H105.301V21.2709L106.075 21.3638H110.162V16.7814L113.351 16.8743V17.091L115.023 18.8559L116.819 20.8374L117.469 21.3638H123.073V21.147L122.702 20.7445L121.309 19.2893L121.216 19.3203ZM116.881 11.8585L116.386 12.4777L115.735 12.8802L114.466 13.2827H110.131V9.13385L110.255 9.04096H114.342L115.612 9.35058L116.633 10.0937L117.005 10.8058L116.881 11.8275V11.8585Z" fill="#00557C"/>
<path d="M228.312 5.604L228.189 12.7871L228.312 14.3352L228.065 14.2423L227.569 13.716L226.393 12.5704L225.247 11.5487L220.665 7.18306L219.767 6.34709L218.869 5.604H215.185V21.3016L215.308 21.3945H220.015L220.138 12.88L220.665 13.4064L222.182 14.7687L223.73 16.2239L224.628 17.0599L225.774 18.0816L227.291 19.5368L228.189 20.3728L229.458 21.3945H232.926L233.05 21.3016V5.604H228.312Z" fill="#00557C"/>
<path d="M59.1992 8.11195L58.3013 7.27598L57.1557 6.56386L55.3599 5.94463L53.3164 5.63501H44.3685L44.2446 5.72789V21.3017L45.3902 21.3946H49.1056V17.3386H52.2947L53.5641 17.2457L54.7097 17.0289L56.5055 16.5026L57.8988 15.7595L59.0444 14.7068L59.6946 13.778L60.19 12.4156V10.2483L59.8184 9.10273L59.1682 8.05003L59.1992 8.11195ZM55.4838 11.7345L55.1122 12.6633L54.6168 13.1897L53.8428 13.5922L52.4495 13.9018H49.1366V9.13369L49.2604 9.04081H52.6972L53.9666 9.35042L54.9884 9.96966L55.3599 10.496L55.4838 10.8985V11.7345Z" fill="#00557C"/>
<path d="M75.268 5.72785L75.1441 11.8583H67.3418L67.2179 5.604H62.5117V21.3016L63.4096 21.3945H67.2179L67.3418 15.6047L75.268 15.4808V21.3016L76.1659 21.3945H80.129V5.604H75.3918L75.268 5.72785Z" fill="#00557C"/>
<path d="M164.872 13.4064L163.2 10.1863L160.785 5.604H156.202L155.428 6.84248L153.911 9.75288L151.744 13.9018L149.329 18.577L147.936 21.1778L148.059 21.3945H153.044L153.168 21.3016L153.942 19.6297L154.314 18.577L162.611 18.6699L163.633 20.9611L164.005 21.3636H168.99V21.1468L167.844 18.9485L164.903 13.3445L164.872 13.4064ZM160.785 15.2641H156.048L155.924 15.0473L157.967 10.7746L158.215 10.2483L158.586 10.3412L159.98 13.1277L160.878 14.8925L160.754 15.2022L160.785 15.2641Z" fill="#00557C"/>
<path d="M98.118 11.6416L95.703 6.96632L94.9289 5.604H90.3466L90.2227 5.69689L87.9315 10.0625L85.3927 14.9545L83.5969 18.3912L82.3275 20.7753L82.2036 21.3945H87.1885L87.3123 21.3016L88.5817 18.7008H96.7557L97.7774 20.8682L98.1489 21.3945H103.134V21.1778L102.484 19.9393L98.1489 11.6416H98.118ZM94.9289 15.2641H90.1918L90.3156 14.6448L92.2352 10.5889L92.3591 10.2792L92.8545 10.496L94.1239 13.1896L95.0218 14.9545L94.8979 15.2641H94.9289Z" fill="#00557C"/>
<path d="M174.067 12.3538L174.439 11.3321L175.213 10.4032L175.863 9.87689L176.637 9.47439L177.906 9.04092H180.445L181.591 9.35054L182.613 9.96978L183.387 10.8057L184.037 12.0442H188.991L188.743 10.8057L187.969 9.25765L186.823 7.80245L185.554 6.8736L184.285 6.13051L182.365 5.51128L180.445 5.20166H178.154L175.987 5.51128L173.943 6.25436L172.271 7.18322L171.126 8.11207L170.228 9.25765L169.361 10.9296L168.958 12.5706V14.4592L169.082 15.0785L169.609 16.5337L170.63 18.1747L171.404 19.0106L172.922 20.1562L174.315 20.8993L175.615 21.3018L177.783 21.7043H180.693L182.891 21.3018L184.532 20.6826L186.08 19.7537L187.226 18.701L188.124 17.4625L188.743 16.1002L188.991 14.8617H184.037L183.758 15.481L183.263 16.3169L182.489 17.0291L181.343 17.6793L180.074 17.9889H178.278L176.637 17.5554L175.739 17.0291L174.965 16.3169L174.315 15.2642L173.943 13.9329V12.8802L174.067 12.3538Z" fill="#00557C"/>
<path d="M36.2561 42.2939L37.928 41.365L38.4543 40.8386L39.4761 39.6931L40.1263 38.4546L40.6526 36.5969V6.13048L40.4049 4.89201L39.7547 3.34392L38.8568 2.10545L37.5874 1.05275L36.4418 0.433509L35.0485 0.0310059H5.60388L5.1085 0.123891L3.96291 0.526395L2.56963 1.36236L1.54789 2.41506L0.52615 4.087L0.0307617 5.94471V36.6898L0.154609 37.309L0.680959 38.7642L1.455 40.0027L2.47674 41.1483L3.37463 41.7675L4.76792 42.3867L6.03735 42.6963H34.7699L36.287 42.2939H36.2561ZM18.515 38.5475L18.1434 39.4763L17.3694 40.1884L16.4715 40.4981H10.5887L9.56699 40.0956L8.9168 39.4763L8.54525 38.6404V19.2273L8.9168 18.2985L9.56699 17.6792L10.2172 17.4625H10.7435L10.2172 16.1002L9.56699 14.4282L9.69084 12.8801L10.9603 3.93219L11.3318 2.69372L11.8272 2.16737L12.4774 1.85775L13.1276 1.76487L14.397 1.85775L15.2949 2.26025L15.8213 2.87949L16.069 4.02508L17.4623 13.6852L17.3384 14.8307L16.3167 17.4315L17.4623 17.6483L18.1124 18.2675L18.484 19.2892V38.5165L18.515 38.5475ZM26.4102 13.2827L25.1408 12.973L23.5927 12.2609L22.5709 11.4249L21.6731 10.2794L21.1777 9.13377L21.0538 8.51454V7.58568L21.4254 6.13048L22.1994 4.98489L23.0973 4.14892L24.8931 3.22007L26.0387 2.91045H26.4102V13.2827ZM34.0887 8.42165L33.5624 10.0936L32.7883 11.2392L31.7666 12.168L29.9708 13.004L29.0729 13.3136H28.7014V3.00334L28.8252 2.91045L30.4972 3.31296L31.8904 4.05604L33.036 5.10874L33.6862 6.25433L34.0578 7.61664V8.45261L34.0887 8.42165Z" fill="#00557C"/>
<path d="M16.8434 22.7568H10.0938V38.9499H16.8434V22.7568Z" fill="#00557C"/>
<path d="M43.873 36.1014V29.7852H46.7835C47.3717 29.7852 47.8671 29.8471 48.2077 29.9709C48.5792 30.0948 48.8579 30.2805 49.0437 30.5592C49.2604 30.8379 49.3533 31.1165 49.3533 31.3952C49.3533 31.6738 49.2604 31.9215 49.0746 32.1692C48.8889 32.4169 48.6102 32.6027 48.2696 32.7575C48.734 32.8813 49.1056 33.0671 49.3533 33.3458C49.601 33.6244 49.7248 33.934 49.7248 34.3056C49.7248 34.6771 49.6629 34.8629 49.5081 35.1415C49.3533 35.3892 49.1675 35.606 48.9508 35.7298C48.7341 35.8846 48.4554 35.9775 48.1148 36.0394C47.7742 36.1014 47.3408 36.1323 46.8763 36.1323H43.904L43.873 36.1014ZM44.8948 32.4479H46.5667C47.0311 32.4479 47.3408 32.4479 47.5575 32.3859C47.8052 32.324 48.0219 32.2311 48.1458 32.0763C48.2696 31.9215 48.3315 31.7358 48.3315 31.519C48.3315 31.3023 48.2696 31.1165 48.1458 30.9617C48.0219 30.8069 47.8362 30.683 47.6194 30.6211C47.4027 30.5592 47.0002 30.5282 46.4429 30.5282H44.8948V32.4479ZM44.8948 35.3583H46.8144C47.155 35.3583 47.3717 35.3583 47.5265 35.3583C47.7742 35.3273 47.96 35.2654 48.1148 35.1725C48.2696 35.0796 48.3935 34.9867 48.5173 34.8319C48.6102 34.6771 48.6721 34.4914 48.6721 34.3056C48.6721 34.1198 48.6102 33.8721 48.4554 33.6863C48.3006 33.5006 48.1148 33.3767 47.8362 33.3148C47.5885 33.2529 47.186 33.2219 46.6906 33.2219H44.8948V35.3892V35.3583Z" fill="#00557C"/>
<path d="M50.6226 36.1014V29.7852H56.2266V30.5282H51.6443V32.4788H55.948V33.191H51.6443V35.3583H56.4124V36.1014H50.6226Z" fill="#00557C"/>
<path d="M62.8215 33.8722L63.8432 34.0889C63.6265 34.7701 63.255 35.2964 62.6667 35.668C62.1094 36.0395 61.4282 36.1943 60.6232 36.1943C59.8182 36.1943 59.1061 36.0705 58.5797 35.7918C58.0534 35.5132 57.6509 35.1107 57.3722 34.5843C57.0936 34.0579 56.9697 33.5006 56.9697 32.8814C56.9697 32.2622 57.1245 31.6429 57.4342 31.1475C57.7438 30.6522 58.1772 30.2806 58.7655 30.0329C59.3228 29.7852 59.973 29.6614 60.6542 29.6614C61.3353 29.6614 62.0784 29.8162 62.6048 30.1258C63.1311 30.4354 63.5027 30.8998 63.7194 31.4881L62.6977 31.6739C62.5119 31.2095 62.2642 30.8689 61.9236 30.6831C61.583 30.4664 61.1496 30.3735 60.6232 30.3735C60.0969 30.3735 59.5396 30.4973 59.1371 30.7141C58.7345 30.9618 58.4559 31.2714 58.3011 31.6429C58.1463 32.0454 58.0534 32.4479 58.0534 32.8504C58.0534 33.2529 58.1463 33.8412 58.332 34.2437C58.5178 34.6462 58.8274 34.9558 59.2299 35.1416C59.6324 35.3274 60.0659 35.4512 60.5613 35.4512C61.0567 35.4512 61.614 35.3274 62.0165 35.0487C62.419 34.7701 62.6977 34.3676 62.8215 33.8412" fill="#00557C"/>
<path d="M63.7192 36.1014L66.6916 29.7852H67.8062L70.9953 36.1014H69.8187L68.9208 34.1817H65.6698L64.8339 36.1014H63.7502H63.7192ZM65.9794 33.5006H68.6112L67.8062 31.7667C67.5585 31.2404 67.3727 30.8069 67.2489 30.4663C67.156 30.8688 67.0012 31.2713 66.8464 31.6738L65.9794 33.5315V33.5006Z" fill="#00557C"/>
<path d="M76.3826 29.7854H77.4044V33.4388C77.4044 34.089 77.3115 34.5844 77.1257 34.956C76.9399 35.3275 76.6303 35.6371 76.1659 35.8539C75.7015 36.1016 75.1132 36.1944 74.3701 36.1944C73.627 36.1944 73.0387 36.1016 72.5743 35.8848C72.1099 35.6681 71.7693 35.3894 71.5835 34.9869C71.3978 34.5844 71.2739 34.0581 71.2739 33.4079V29.7544H72.2957V33.4079C72.2957 33.9652 72.3576 34.3677 72.4814 34.6154C72.6053 34.8631 72.822 35.0798 73.1316 35.2037C73.4413 35.3275 73.8128 35.4204 74.2463 35.4204C74.9893 35.4204 75.5467 35.2966 75.8563 35.0179C76.1659 34.7392 76.3517 34.2129 76.3517 33.4079V29.7544L76.3826 29.7854Z" fill="#00557C"/>
<path d="M78.2096 34.0579L79.1694 33.996C79.2004 34.3056 79.3242 34.5843 79.479 34.77C79.6338 34.9868 79.9125 35.1416 80.2531 35.2654C80.5936 35.3893 80.9961 35.4512 81.4296 35.4512C81.8631 35.4512 82.1727 35.3893 82.4823 35.2964C82.7919 35.2035 83.0087 35.0796 83.1635 34.8939C83.3183 34.7391 83.3802 34.5533 83.3802 34.3366C83.3802 34.1198 83.3183 33.965 83.1635 33.8102C83.0087 33.6554 82.7919 33.5316 82.4513 33.4387C82.2346 33.3767 81.7702 33.2839 81.0581 33.1291C80.3459 32.9742 79.8506 32.8504 79.5719 32.7266C79.2004 32.5717 78.9217 32.386 78.7359 32.1383C78.5502 31.8906 78.4573 31.6429 78.4573 31.3642C78.4573 31.0856 78.5811 30.745 78.7979 30.4663C79.0146 30.1877 79.3552 29.971 79.7577 29.8471C80.1911 29.6923 80.6556 29.6304 81.1819 29.6304C81.7083 29.6304 82.2656 29.7233 82.699 29.8471C83.1325 30.0019 83.4731 30.2186 83.7208 30.4973C83.9685 30.776 84.0923 31.1165 84.0923 31.4881L83.1015 31.55C83.0396 31.1475 82.8539 30.8379 82.5752 30.6521C82.2656 30.4354 81.8321 30.3425 81.2129 30.3425C80.5936 30.3425 80.1292 30.4354 79.8506 30.6211C79.5719 30.8069 79.4171 31.0237 79.4171 31.3023C79.4171 31.581 79.51 31.7048 79.7267 31.8596C79.9125 32.0144 80.4388 32.1383 81.2748 32.324C82.1108 32.4789 82.6681 32.6027 82.9777 32.7266C83.4421 32.8814 83.7517 33.0981 83.9685 33.3767C84.1852 33.6244 84.2781 33.9341 84.2781 34.2746C84.2781 34.6152 84.1542 34.9248 83.9375 35.2345C83.6898 35.5441 83.3492 35.7608 82.9158 35.9156C82.4823 36.0704 81.9869 36.1633 81.4296 36.1633C80.8723 36.1633 80.1292 36.0704 79.6648 35.9156C79.2004 35.7608 78.8288 35.5131 78.5502 35.1725C78.2715 34.832 78.1477 34.4604 78.1167 34.0269" fill="#00557C"/>
<path d="M85.2686 36.1014V29.7852H90.8726V30.5282H86.2903V32.4788H90.594V33.191H86.2903V35.3583H91.0584V36.1014H85.2686Z" fill="#00557C"/>
<path d="M94.4336 36.1014V29.7852H95.4863V32.3859H99.5113V29.7852H100.533V36.1014H99.5113V33.129H95.4863V36.1014H94.4336Z" fill="#00557C"/>
<path d="M101.74 36.1014V29.7852H107.344V30.5282H102.762V32.4788H107.035V33.191H102.762V35.3583H107.53V36.1014H101.74Z" fill="#00557C"/>
<path d="M107.53 36.1014L110.503 29.7852H111.617L114.806 36.1014H113.63L112.732 34.1817H109.481L108.645 36.1014H107.561H107.53ZM109.79 33.5006H112.422L111.617 31.7667C111.37 31.2404 111.184 30.8069 111.06 30.4663C110.967 30.8688 110.812 31.2713 110.626 31.6738L109.76 33.5315L109.79 33.5006Z" fill="#00557C"/>
<path d="M115.054 36.1014V29.7852H116.076V35.3583H119.884V36.1014H115.054Z" fill="#00557C"/>
<path d="M121.742 36.1014V30.5282H119.172V29.7852H125.333V30.5282H122.763V36.1014H121.742Z" fill="#00557C"/>
<path d="M125.891 36.1014V29.7852H126.912V32.3859H130.937V29.7852H131.959V36.1014H130.937V33.129H126.912V36.1014H125.891Z" fill="#00557C"/>
<path d="M135.613 36.1014V29.7852H138.276C138.895 29.7852 139.328 29.8161 139.669 29.878C140.102 29.9709 140.505 30.1257 140.814 30.3425C141.217 30.6211 141.526 30.9927 141.743 31.4261C141.96 31.8596 142.053 32.355 142.053 32.9123C142.053 33.4696 141.991 33.8102 141.836 34.1817C141.712 34.5533 141.526 34.8629 141.31 35.1106C141.093 35.3583 140.845 35.544 140.598 35.6679C140.35 35.8227 140.04 35.9156 139.669 35.9775C139.297 36.0394 138.895 36.0704 138.43 36.0704H135.644L135.613 36.1014ZM136.635 35.3583H138.306C138.802 35.3583 139.204 35.3273 139.514 35.2344C139.793 35.1725 140.04 35.0487 140.195 34.8939C140.443 34.7081 140.629 34.4294 140.752 34.0888C140.876 33.7483 140.969 33.3458 140.969 32.8813C140.969 32.4169 140.845 31.7048 140.567 31.3642C140.288 30.9927 139.978 30.7759 139.607 30.6521C139.328 30.5592 138.895 30.5282 138.276 30.5282H136.635V35.3583Z" fill="#00557C"/>
<path d="M142.919 36.1014V29.7852H148.524V30.5282H143.941V32.4788H148.245V33.191H143.941V35.3583H148.709V36.1014H142.919Z" fill="#00557C"/>
<path d="M149.236 34.0579L150.196 33.996C150.227 34.3056 150.351 34.5843 150.505 34.77C150.66 34.9868 150.939 35.1416 151.279 35.2654C151.62 35.3893 152.023 35.4512 152.456 35.4512C152.889 35.4512 153.199 35.3893 153.509 35.2964C153.818 35.2035 154.035 35.0796 154.19 34.8939C154.345 34.7391 154.407 34.5533 154.407 34.3366C154.407 34.1198 154.345 33.965 154.19 33.8102C154.035 33.6554 153.818 33.5316 153.478 33.4387C153.261 33.3767 152.797 33.2839 152.084 33.1291C151.372 32.9742 150.877 32.8504 150.598 32.7266C150.227 32.5717 149.948 32.386 149.762 32.1383C149.577 31.8906 149.484 31.6429 149.484 31.3642C149.484 31.0856 149.607 30.745 149.824 30.4663C150.041 30.1877 150.382 29.971 150.784 29.8471C151.218 29.6923 151.682 29.6304 152.208 29.6304C152.735 29.6304 153.292 29.7233 153.725 29.8471C154.159 30.0019 154.499 30.2186 154.747 30.4973C154.995 30.776 155.119 31.1165 155.119 31.4881L154.128 31.55C154.066 31.1475 153.88 30.8379 153.602 30.6521C153.292 30.4354 152.858 30.3425 152.239 30.3425C151.62 30.3425 151.156 30.4354 150.877 30.6211C150.598 30.8069 150.443 31.0237 150.443 31.3023C150.443 31.581 150.536 31.7048 150.753 31.8596C150.939 32.0144 151.465 32.1383 152.301 32.324C153.137 32.4789 153.694 32.6027 154.004 32.7266C154.468 32.8814 154.778 33.0981 154.995 33.3767C155.212 33.6244 155.304 33.9341 155.304 34.2746C155.304 34.6152 155.181 34.9248 154.964 35.2345C154.716 35.5441 154.376 35.7608 153.942 35.9156C153.509 36.0704 153.013 36.1633 152.456 36.1633C151.899 36.1633 151.156 36.0704 150.691 35.9156C150.227 35.7608 149.855 35.5131 149.577 35.1725C149.298 34.832 149.174 34.4604 149.143 34.0269" fill="#00557C"/>
<path d="M156.295 36.1014V29.7852H161.93V30.5282H157.317V32.4788H161.62V33.191H157.317V35.3583H162.085V36.1014H156.295Z" fill="#00557C"/>
<path d="M162.983 36.1014V29.7852H166.42C167.101 29.7852 167.627 29.8471 167.999 29.9709C168.37 30.0948 168.649 30.2805 168.866 30.5592C169.082 30.8379 169.175 31.1784 169.175 31.519C169.175 31.8596 168.989 32.355 168.649 32.6646C168.308 32.9742 167.751 33.16 167.008 33.2529C167.287 33.3458 167.503 33.4696 167.627 33.5625C167.937 33.7792 168.215 34.0579 168.494 34.3985L169.856 36.1323H168.556L167.534 34.801C167.225 34.4294 166.977 34.1198 166.791 33.934C166.605 33.7173 166.42 33.5935 166.265 33.5006C166.11 33.4077 165.955 33.3767 165.8 33.3458C165.677 33.3458 165.491 33.3458 165.243 33.3458H164.067V36.1633H163.045L162.983 36.1014ZM164.005 32.5717H166.203C166.667 32.5717 167.039 32.5408 167.318 32.4479C167.596 32.3859 167.782 32.2311 167.906 32.0763C168.03 31.8906 168.123 31.7048 168.123 31.519C168.123 31.2094 167.999 30.9617 167.72 30.7759C167.441 30.5902 167.039 30.4973 166.451 30.4973H164.005V32.5717Z" fill="#00557C"/>
<path d="M172.271 36.1014L169.268 29.7852H170.383L172.395 34.3675C172.55 34.739 172.705 35.0796 172.798 35.3892C172.922 35.0487 173.045 34.7081 173.231 34.3675L175.337 29.7852H176.389L173.355 36.1014H172.302H172.271Z" fill="#00557C"/>
<path d="M176.792 36.1014V29.7852H182.396V30.5282H177.814V32.4788H182.086V33.191H177.814V35.3583H182.582V36.1014H176.792Z" fill="#00557C"/>
<path d="M183.108 34.0579L184.068 33.996C184.099 34.3056 184.222 34.5843 184.377 34.77C184.532 34.9868 184.811 35.1416 185.151 35.2654C185.492 35.3893 185.894 35.4512 186.328 35.4512C186.761 35.4512 187.071 35.3893 187.381 35.2964C187.69 35.2035 187.907 35.0796 188.062 34.8939C188.217 34.7391 188.278 34.5533 188.278 34.3366C188.278 34.1198 188.217 33.965 188.062 33.8102C187.907 33.6554 187.69 33.5316 187.35 33.4387C187.133 33.3767 186.668 33.2839 185.956 33.1291C185.244 32.9742 184.749 32.8504 184.47 32.7266C184.099 32.5717 183.82 32.386 183.634 32.1383C183.448 31.8906 183.356 31.6429 183.356 31.3642C183.356 31.0856 183.479 30.745 183.696 30.4663C183.913 30.1877 184.253 29.971 184.656 29.8471C185.089 29.6923 185.554 29.6304 186.08 29.6304C186.607 29.6304 187.164 29.7233 187.597 29.8471C188.031 30.0019 188.371 30.2186 188.619 30.4973C188.867 30.776 188.991 31.1165 188.991 31.4881L188 31.55C187.938 31.1475 187.752 30.8379 187.473 30.6521C187.164 30.4354 186.73 30.3425 186.111 30.3425C185.492 30.3425 185.027 30.4354 184.749 30.6211C184.47 30.8069 184.315 31.0237 184.315 31.3023C184.315 31.581 184.408 31.7048 184.625 31.8596C184.811 32.0144 185.337 32.1383 186.173 32.324C187.009 32.4789 187.566 32.6027 187.907 32.7266C188.371 32.8814 188.681 33.0981 188.898 33.3767C189.114 33.6244 189.207 33.9341 189.207 34.2746C189.207 34.6152 189.083 34.9248 188.867 35.2345C188.619 35.5441 188.278 35.7608 187.845 35.9156C187.412 36.0704 186.916 36.1633 186.359 36.1633C185.802 36.1633 185.058 36.0704 184.594 35.9156C184.13 35.7608 183.758 35.5131 183.479 35.1725C183.201 34.832 183.077 34.4604 183.046 34.0269" fill="#00557C"/>
<path d="M198.496 35.4203C198.961 35.6989 199.425 35.8847 199.828 36.0085L199.518 36.5968C198.961 36.442 198.403 36.1634 197.846 35.8228C197.258 36.0705 196.638 36.2253 195.926 36.2253C195.214 36.2253 194.595 36.1014 194.007 35.8228C193.449 35.5441 192.985 35.1726 192.675 34.6462C192.366 34.1508 192.211 33.5935 192.211 32.9433C192.211 32.2931 192.366 31.7668 192.675 31.2404C192.985 30.7141 193.418 30.3425 194.007 30.0639C194.595 29.7852 195.214 29.6614 195.926 29.6614C196.638 29.6614 197.289 29.8162 197.877 30.0639C198.465 30.3425 198.899 30.7141 199.208 31.2404C199.518 31.7358 199.673 32.2931 199.673 32.9433C199.673 33.5935 199.58 33.9341 199.394 34.3366C199.208 34.7391 198.899 35.1107 198.527 35.4203M196.236 34.3676C196.824 34.4914 197.32 34.7081 197.691 34.9558C198.279 34.4914 198.589 33.8412 198.589 32.9433C198.589 32.0454 198.496 31.9835 198.279 31.612C198.063 31.2404 197.753 30.9308 197.351 30.7141C196.948 30.4973 196.484 30.4045 195.957 30.4045C195.183 30.4045 194.564 30.6212 194.038 31.0547C193.542 31.4881 193.295 32.1074 193.295 32.9743C193.295 33.8412 193.542 34.4295 194.038 34.863C194.533 35.2964 195.183 35.5132 195.957 35.5132C196.731 35.5132 196.669 35.4512 196.979 35.3583C196.669 35.2035 196.329 35.0797 195.957 34.9868L196.205 34.3676H196.236Z" fill="#00557C"/>
<path d="M205.586 29.7854H206.608V33.4388C206.608 34.089 206.515 34.5844 206.33 34.956C206.144 35.3275 205.834 35.6371 205.37 35.8539C204.905 36.1016 204.317 36.1944 203.543 36.1944C202.769 36.1944 202.212 36.1016 201.747 35.8848C201.283 35.6681 200.942 35.3894 200.756 34.9869C200.571 34.5844 200.447 34.0581 200.447 33.4079V29.7544H201.469V33.4079C201.469 33.9652 201.53 34.3677 201.654 34.6154C201.778 34.8631 201.995 35.0798 202.304 35.2037C202.614 35.3275 202.986 35.4204 203.419 35.4204C204.162 35.4204 204.72 35.2966 205.029 35.0179C205.339 34.7392 205.524 34.2129 205.524 33.4079V29.7544L205.586 29.7854Z" fill="#00557C"/>
<path d="M206.949 36.1014L209.921 29.7852H211.036L214.225 36.1014H213.048L212.15 34.1817H208.899L208.063 36.1014H206.98H206.949ZM209.178 33.5006H211.81L211.005 31.7667C210.757 31.2404 210.571 30.8069 210.447 30.4663C210.355 30.8688 210.2 31.2713 210.045 31.6738L209.178 33.5315V33.5006Z" fill="#00557C"/>
<path d="M214.441 36.1014V29.7852H215.463V35.3583H219.302V36.1014H214.441Z" fill="#00557C"/>
<path d="M221.16 29.7852H220.138V36.1014H221.16V29.7852Z" fill="#00557C"/>
<path d="M224.411 36.1014V30.5282H221.841V29.7852H228.003V30.5282H225.433V36.1014H224.411Z" fill="#00557C"/>
<path d="M230.696 36.1014V33.4386L227.693 29.7852H228.931L230.448 31.6738C230.727 32.0454 231.006 32.3859 231.253 32.7575C231.501 32.4169 231.78 32.0454 232.089 31.6429L233.607 29.7852H234.814L231.718 33.4386V36.1014H230.696Z" fill="#00557C"/>
</g>
<defs>
<clipPath id="clip0_53_1407">
<rect width="235" height="42.6963" fill="white"/>
</clipPath>
</defs>
</svg>
